# xmcd
#
# Track frame offsets: 
#        150
#        22304
#        37791
#        60650
#        83116
#        104134
#        121815
#
# Disc length: 2433 seconds
#
# Revision: 6
# Processed by: cddbd v1.5.2PL0 Copyright (c) Steve Scherf et al.
# Submitted via: ExactAudioCopy v1.0b3
#
DISCID=57097f07
DTITLE=Scorpions - Lonesome Crow SHM-CD 2005 Remaster UICY-20116
DYEAR=1972
DGENRE=Rock
TTITLE0=I'm Goin' Mad
TTITLE1=It All Depends
TTITLE2=Leave Me
TTITLE3=In Search Of The Peace Of Mind
TTITLE4=Inheritance
TTITLE5=Action
TTITLE6=Lonesome Crow
EXTD=YEAR: 1972
EXTT0=
EXTT1=
EXTT2=
EXTT3=
EXTT4=
EXTT5=
EXTT6=
PLAYORDER=
